<svg width="7" height="8" viewBox="0 0 7 8" fill="none" xmlns="http://www.w3.org/2000/svg">
<path fill-rule="evenodd" clip-rule="evenodd" d="M3 0H4V5H5V6H2V5H3V0Z" fill="white"/>
<path fill-rule="evenodd" clip-rule="evenodd" d="M2 2L3.5 0L5 2H2Z" fill="white"/>
<path fill-rule="evenodd" clip-rule="evenodd" d="M0 4H1V5H0V4Z" fill="white"/>
<path fill-rule="evenodd" clip-rule="evenodd" d="M0 5H1V6H0V5Z" fill="white"/>
<path fill-rule="evenodd" clip-rule="evenodd" d="M0 6H1V7H0V6Z" fill="white"/>
<path fill-rule="evenodd" clip-rule="evenodd" d="M0 7H7V8H0V7Z" fill="white"/>
<path fill-rule="evenodd" clip-rule="evenodd" d="M6 4H7V5H6V4Z" fill="white"/>
<path fill-rule="evenodd" clip-rule="evenodd" d="M6 5H7V6H6V5Z" fill="white"/>
<path fill-rule="evenodd" clip-rule="evenodd" d="M6 6H7V7H6V6Z" fill="white"/>
</svg>